<svg width="14" height="14" viewBox="0 0 14 14" fill="none" xmlns="http://www.w3.org/2000/svg">
<path fill-rule="evenodd" clip-rule="evenodd" d="M0.374245 0.37426C-0.124749 0.873254 -0.124748 1.68228 0.374246 2.18128L5.19297 7.00001L0.374286 11.8187C-0.124709 12.3177 -0.124709 13.1267 0.374286 13.6257C0.87328 14.1247 1.68231 14.1247 2.1813 13.6257L6.99999 8.80703L11.8187 13.6257C12.3177 14.1247 13.1267 14.1247 13.6257 13.6257C14.1247 13.1267 14.1247 12.3177 13.6257 11.8187L8.80701 7.00001L13.6258 2.18126C14.1247 1.68227 14.1247 0.87324 13.6258 0.374246C13.1268 -0.124749 12.3177 -0.124749 11.8187 0.374246L6.99999 5.19299L2.18126 0.37426C1.68227 -0.124735 0.87324 -0.124734 0.374245 0.37426Z" fill="#4F4F4F"/>
</svg>
