<svg width="12" height="13" viewBox="0 0 12 13" fill="none" xmlns="http://www.w3.org/2000/svg">
<path d="M3.19395 6.70606L8.18297 1.7168L10.2864 3.82023L5.29714 8.80925L2.9314 9.07195L3.19395 6.70606Z" fill="#2C66E3"/>
<path d="M8.81958 1.07648L9.67968 0.216772C9.81944 0.0778695 10.0086 0 10.2055 0C10.4026 0 10.5916 0.0778695 10.7314 0.216772L11.7827 1.26848C11.9219 1.40805 12 1.59718 12 1.79434C12 1.9915 11.9219 2.18054 11.7827 2.32021L10.923 3.17991L8.81958 1.07648Z" fill="#2C66E3"/>
<path d="M11.1428 6.42963C11.0291 6.42963 10.9201 6.47479 10.8397 6.55514C10.7593 6.6355 10.7142 6.74455 10.7142 6.8582V10.7153C10.7142 10.829 10.669 10.938 10.5887 11.0184C10.5083 11.0987 10.3993 11.1439 10.2856 11.1439H1.2857C1.17206 11.1439 1.063 11.0987 0.982644 11.0184C0.902289 10.938 0.857135 10.829 0.857135 10.7153V1.71539C0.857135 1.60174 0.902289 1.49269 0.982644 1.41233C1.063 1.33198 1.17206 1.28682 1.2857 1.28682H5.14281C5.29596 1.28682 5.43744 1.20513 5.51397 1.07254C5.5905 0.93995 5.5905 0.776558 5.51397 0.643971C5.43744 0.511385 5.29596 0.429688 5.14281 0.429688H1.2857C0.944661 0.429688 0.6177 0.565144 0.376527 0.806215C0.135457 1.04738 0 1.37435 0 1.71539V10.7153C0 11.0563 0.135457 11.3833 0.376527 11.6245C0.617693 11.8656 0.944661 12.001 1.2857 12.001H10.2856C10.6267 12.001 10.9536 11.8656 11.1948 11.6245C11.4359 11.3833 11.5713 11.0563 11.5713 10.7153V6.8582C11.5713 6.74455 11.5262 6.6355 11.4458 6.55514C11.3655 6.47479 11.2564 6.42963 11.1428 6.42963Z" fill="#2C66E3"/>
</svg>
